# xmcd
#
# Track frame offsets:
#	150
#	27497
#	55314
#	67194
#	90268
#	102758
#	114937
#	126857
#	137037
#	150798
#	163458
#	179936
#	200523
#	208155
#	227149
#	245215
#	252903
#	266598
#	298636
#	314608
#
# Disc length: 4432 seconds
#
# Revision: 0
# Processed by: cddbd v1.5.2PL0 Copyright (c) Steve Scherf et al.
# Submitted via: EasyCDDAExtractor 16.0.6.1
#
DISCID=34114e14
DTITLE=Various Artist - Ηπειρώτικο πανηγύρι-Αδ. Μερόπης Πωγωνίου
DYEAR=1900
DGENRE=Παραδοσιακή
TTITLE0=Θεοδώρου Κώστας - Ηπειρώτισσα πατρίδα
TTITLE1=Άνευ ερμηνευτού - Γκάϊτα [ορχ., Πέτρο Λούκας Χαλκιάς]
TTITLE2=Κυρίτσης Αντώνης - Νταϊλιάνα
TTITLE3=Άνευ ερμηνευτού - Μπεράτι [ορχ., Πέτρο Λούκας Χαλκιάς]
TTITLE4=Θεοδώρου Κώστας - Μαύρα μου χελιδόνια
TTITLE5=Κυρίτσης Αντώνης - Αφήστε με να φύγω
TTITLE6=Θεοδώρου Κώστας - Μάγια
TTITLE7=Άνευ ερμηνευτού - Αργυροκαστρίτικο [ορχ., Πέτρο Λούκας Χαλκιάς]
TTITLE8=Κυρίτσης Αντώνης - Την πέρδικα που πιάσατε
TTITLE9=Θεοδώρου Κώστας - Μπαίνω μέσ' στ' αμπέλι
TTITLE10=Κυρίτσης Αντώνης - Μαρία λέν' την Παναγιά
TTITLE11=Κυρίτσης Αντώνης - Κωσταντής
TTITLE12=Άνευ ερμηνευτού - Οργανικό πωγωνίσιο [ορχ., Πέτρο Λούκας Χαλκιάς]
TTITLE13=Θεοδώρου Κώστας - Πάρ' το γκιούμι
TTITLE14=Κυρίτσης Αντώνης - Σαμαντάκα
TTITLE15=Άνευ ερμηνευτού - Καραπατάκι [ορχ., Πέτρο Λούκας Χαλκιάς]
TTITLE16=Κυρίτσης Αντώνης - Μαραίνομαι ο καημένος
TTITLE17=Κυρίτσης Αντώνης - Στην αγκαλιά σου βάλε με
TTITLE18=Θεοδώρου Κώστας - Αχ μωρέ σεβντά μου
TTITLE19=Άνευ ερμηνευτού - Μοιρολόϊ [ορχ., Πέτρο Λούκας Χαλκιάς]
EXTD=
EXTT0=
EXTT1=
EXTT2=
EXTT3=
EXTT4=
EXTT5=
EXTT6=
EXTT7=
EXTT8=
EXTT9=
EXTT10=
EXTT11=
EXTT12=
EXTT13=
EXTT14=
EXTT15=
EXTT16=
EXTT17=
EXTT18=
EXTT19=
PLAYORDER=
